<svg width="244" height="102" viewBox="0 0 244 102" fill="none" xmlns="http://www.w3.org/2000/svg">
<path d="M43.3441 100V81.24H0.364063V63.32L38.4441 2.28H63.3641V65H75.6841V81.24H63.3641V100H43.3441ZM17.1641 65H43.3441V23.98H41.9441L17.1641 65ZM122.109 101.68C109.323 101.68 99.8494 97.2467 93.6894 88.38C87.5294 79.5133 84.4494 67.1 84.4494 51.14C84.4494 35.18 87.5294 22.7667 93.6894 13.9C99.8494 5.03333 109.323 0.599995 122.109 0.599995C134.896 0.599995 144.369 5.03333 150.529 13.9C156.689 22.7667 159.769 35.18 159.769 51.14C159.769 67.1 156.689 79.5133 150.529 88.38C144.369 97.2467 134.896 101.68 122.109 101.68ZM122.109 83.9C127.709 83.9 131.583 81.8467 133.729 77.74C135.876 73.6333 136.949 67.8467 136.949 60.38V41.9C136.949 34.4333 135.876 28.6467 133.729 24.54C131.583 20.4333 127.709 18.38 122.109 18.38C116.509 18.38 112.636 20.4333 110.489 24.54C108.343 28.6467 107.269 34.4333 107.269 41.9V60.38C107.269 67.8467 108.343 73.6333 110.489 77.74C112.636 81.8467 116.509 83.9 122.109 83.9ZM211.235 100V81.24H168.255V63.32L206.335 2.28H231.255V65H243.575V81.24H231.255V100H211.235ZM185.055 65H211.235V23.98H209.835L185.055 65Z" fill="url(#paint0_linear_1_2294)"/>
<defs>
<linearGradient id="paint0_linear_1_2294" x1="-4" y1="117" x2="248" y2="117" gradientUnits="userSpaceOnUse">
<stop stop-color="#4A4AB1"/>
<stop offset="0.49996" stop-color="#7B7BFF"/>
<stop offset="1" stop-color="#4A4AB1"/>
</linearGradient>
</defs>
</svg>
