<svg width="206" height="32" viewBox="0 0 206 32" fill="none" xmlns="http://www.w3.org/2000/svg">
<path d="M153.359 31.3371L156.38 28.3311L153.359 25.325L150.338 28.331L153.359 31.3371Z" fill="#7B7BFF"/>
<path d="M0 31.3725L9.68067 0H16.3137L25.9944 31.3725H22.0952L19.6751 23.4398H6.31933L3.89916 31.3725H0ZM7.2605 20.0336H18.6891L13.3109 2.28571H12.6835L7.2605 20.0336Z" fill="white"/>
<path d="M30.8295 31.3725V0H34.3701V18.465H34.9976L45.0368 9.45658H49.9667L37.8211 20.1232L50.3253 31.3725H45.4401L34.9976 21.8263H34.3701V31.3725H30.8295Z" fill="white"/>
<path d="M63.2055 32C60.4866 32 58.1859 31.3725 56.3036 30.1176C54.4511 28.8627 53.3307 26.8758 52.9422 24.1569L56.3036 23.395C56.5426 24.8291 56.9908 25.9645 57.6481 26.8011C58.3054 27.6078 59.1122 28.1905 60.0683 28.549C61.0543 28.8777 62.1 29.042 63.2055 29.042C64.8489 29.042 66.1486 28.7134 67.1047 28.056C68.0608 27.3987 68.5389 26.5173 68.5389 25.4118C68.5389 24.2764 68.0757 23.4846 67.1495 23.0364C66.2532 22.5584 65.0132 22.1699 63.4296 21.8711L61.5921 21.5574C60.1878 21.3184 58.903 20.9449 57.7377 20.437C56.5725 19.929 55.6462 19.2418 54.959 18.3753C54.2718 17.5089 53.9282 16.4183 53.9282 15.1036C53.9282 13.1317 54.6901 11.5929 56.2139 10.4874C57.7377 9.38189 59.7546 8.82913 62.2644 8.82913C64.7443 8.82913 66.7461 9.39683 68.27 10.5322C69.8236 11.6377 70.8246 13.2063 71.2728 15.2381L67.9562 16.0896C67.6873 14.5061 67.0449 13.4006 66.0291 12.7731C65.0132 12.1158 63.7583 11.7871 62.2644 11.7871C60.7704 11.7871 59.5902 12.071 58.7237 12.6387C57.8573 13.1765 57.424 13.9832 57.424 15.0588C57.424 16.1046 57.8274 16.8814 58.6341 17.3894C59.4707 17.8674 60.5762 18.226 61.9506 18.465L63.7882 18.7787C65.3419 19.0476 66.7312 19.4211 67.9562 19.8992C69.2111 20.3473 70.1971 21.0047 70.9142 21.8711C71.6612 22.7376 72.0347 23.873 72.0347 25.2773C72.0347 27.4286 71.2279 29.0868 69.6145 30.2521C68.0309 31.4174 65.8946 32 63.2055 32Z" fill="white"/>
<path d="M88.0501 32C85.8391 32 83.8969 31.5369 82.2237 30.6106C80.5505 29.6545 79.2508 28.3249 78.3246 26.6218C77.3983 24.9188 76.9352 22.9468 76.9352 20.7059V20.1681C76.9352 17.8973 77.3983 15.9104 78.3246 14.2073C79.2508 12.5042 80.5356 11.1895 82.1789 10.2633C83.8222 9.30719 85.7046 8.82913 87.826 8.82913C89.8876 8.82913 91.7102 9.27731 93.2938 10.1737C94.8773 11.0401 96.1173 12.2951 97.0137 13.9384C97.91 15.5817 98.3582 17.5089 98.3582 19.7199V21.3333H80.4758C80.5655 23.6937 81.3274 25.5462 82.7616 26.8908C84.1957 28.2054 85.9884 28.8627 88.1397 28.8627C90.0221 28.8627 91.4712 28.4295 92.487 27.563C93.5029 26.6965 94.2798 25.6657 94.8176 24.4706L97.8652 25.9496C97.417 26.8758 96.7896 27.8021 95.9828 28.7283C95.206 29.6545 94.1752 30.4314 92.8904 31.0588C91.6355 31.6863 90.0221 32 88.0501 32ZM80.5207 18.4202H94.7728C94.6532 16.3884 93.9511 14.8049 92.6663 13.6695C91.4114 12.5341 89.798 11.9664 87.826 11.9664C85.8241 11.9664 84.1808 12.5341 82.896 13.6695C81.6112 14.8049 80.8194 16.3884 80.5207 18.4202Z" fill="white"/>
<path d="M104.534 31.3725V9.45658H107.985V13.1765H108.612C109.09 12.1307 109.897 11.1895 111.033 10.3529C112.198 9.48646 113.901 9.05322 116.142 9.05322C117.785 9.05322 119.249 9.39683 120.534 10.084C121.849 10.7712 122.894 11.7871 123.671 13.1317C124.448 14.4762 124.836 16.1345 124.836 18.1064V31.3725H121.296V18.3753C121.296 16.1942 120.743 14.6106 119.638 13.6246C118.562 12.6387 117.098 12.1457 115.245 12.1457C113.124 12.1457 111.391 12.8329 110.047 14.2073C108.732 15.5817 108.075 17.6284 108.075 20.3473V31.3725H104.534Z" fill="white"/>
<path d="M139.474 31.3725C138.22 31.3725 137.248 31.0289 136.561 30.3417C135.904 29.6545 135.575 28.7134 135.575 27.5182V12.549H128.987V9.45658H135.575V1.65826H139.116V9.45658H146.287V12.549H139.116V26.9804C139.116 27.8767 139.549 28.3249 140.416 28.3249H145.301V31.3725H139.474Z" fill="white"/>
<path d="M169.572 31.7759C167.989 31.7759 166.524 31.4323 165.18 30.7451C163.865 30.0578 162.82 29.042 162.043 27.6974C161.296 26.323 160.922 24.6648 160.922 22.7226V9.45654H164.463V22.4537C164.463 24.6349 165.001 26.2184 166.076 27.2044C167.182 28.1904 168.661 28.6834 170.513 28.6834C172.605 28.6834 174.323 27.9962 175.667 26.6218C177.012 25.2474 177.684 23.2007 177.684 20.4818V9.45654H181.225V31.3725H177.774V27.6526H177.146C176.668 28.6984 175.847 29.6545 174.681 30.521C173.516 31.3576 171.813 31.7759 169.572 31.7759Z" fill="white"/>
<path d="M187.647 31.3725V26.8011L201.586 13.042V12.549H188.096V9.45654H205.306V14.028L191.322 27.7871V28.3249H205.664V31.3725H187.647Z" fill="white"/>
</svg>
