<svg width="24" height="24" viewBox="0 0 24 24" fill="none" xmlns="http://www.w3.org/2000/svg">
<path fill-rule="evenodd" clip-rule="evenodd" d="M2.99992 10.5C2.99992 14.6421 6.35779 18 10.4999 18C12.2316 18 13.8261 17.4131 15.0956 16.4275C15.1434 16.5286 15.2092 16.6234 15.2928 16.7071L19 20.4142C19.3905 20.8047 20.0237 20.8047 20.4142 20.4142C20.8047 20.0237 20.8047 19.3905 20.4142 19L16.707 15.2929C16.6234 15.2092 16.5286 15.1435 16.4274 15.0957C17.4131 13.8262 17.9999 12.2316 17.9999 10.5C17.9999 6.35786 14.6421 3 10.4999 3C6.35779 3 2.99992 6.35786 2.99992 10.5ZM4.99992 10.5C4.99992 7.46243 7.46235 5 10.4999 5C13.5375 5 15.9999 7.46243 15.9999 10.5C15.9999 13.5376 13.5375 16 10.4999 16C7.46235 16 4.99992 13.5376 4.99992 10.5Z" fill="white"/>
</svg>
