<svg width="24" height="24" viewBox="0 0 24 24" fill="none" xmlns="http://www.w3.org/2000/svg">
<path fill-rule="evenodd" clip-rule="evenodd" d="M3.59973 9.82731C4.45069 10.6391 5.61744 11.1398 6.90464 11.1398C9.50919 11.1398 11.6206 9.08971 11.6206 6.56076C11.6206 6.15823 11.5671 5.76783 11.4666 5.3959C12.5392 4.01999 14.2715 3.12646 16.226 3.12646C19.4817 3.12646 22.121 5.60568 22.121 8.66394C22.121 9.21138 22.0364 9.74026 21.8789 10.2397C22.5326 10.5846 23.0626 11.0828 23.4293 11.6972C23.7965 12.3125 24 13.0443 24 13.8553C24 14.6663 23.7965 15.3981 23.4293 16.0134C23.0621 16.6287 22.5312 17.1274 21.8762 17.4724C21.2212 17.8173 20.4421 18.0084 19.5788 18.0084H4.84141C3.97804 18.0084 3.199 17.8173 2.54401 17.4724C1.88902 17.1274 1.35806 16.6287 0.990857 16.0134C0.623653 15.3981 0.420197 14.6663 0.420197 13.8553C0.420197 13.0443 0.623653 12.3125 0.990857 11.6972C1.35806 11.082 1.88902 10.5832 2.54401 10.2383C2.7506 10.1295 2.96952 10.036 3.19955 9.95896C3.1966 9.93994 3.36939 9.89742 3.59973 9.82731Z" fill="url(#paint0_linear_6_51)"/>
<path fill-rule="evenodd" clip-rule="evenodd" d="M5.89618 20.0879C6.06076 19.8111 6.42065 19.7147 6.70155 19.8722C6.98455 20.0308 7.07987 20.3867 6.91406 20.6656L5.98673 22.2251C5.82215 22.5019 5.46226 22.5983 5.18136 22.4408C4.89836 22.2822 4.80304 21.9263 4.96885 21.6474L5.89618 20.0879Z" fill="#B6B3BB"/>
<path fill-rule="evenodd" clip-rule="evenodd" d="M11.7911 20.0879C11.9557 19.8111 12.3156 19.7147 12.5965 19.8722C12.8795 20.0308 12.9748 20.3867 12.809 20.6656L11.8817 22.2251C11.7171 22.5019 11.3572 22.5983 11.0763 22.4408C10.7933 22.2822 10.698 21.9263 10.8638 21.6474L11.7911 20.0879Z" fill="#B6B3BB"/>
<path fill-rule="evenodd" clip-rule="evenodd" d="M17.6861 20.0879C17.8506 19.8111 18.2105 19.7147 18.4914 19.8722C18.7744 20.0308 18.8698 20.3867 18.7039 20.6656L17.7766 22.2251C17.612 22.5019 17.2521 22.5983 16.9712 22.4408C16.6883 22.2822 16.5929 21.9263 16.7587 21.6474L17.6861 20.0879Z" fill="#B6B3BB"/>
<ellipse cx="6.90467" cy="6.56076" rx="3.53697" ry="3.4343" fill="url(#paint1_linear_6_51)"/>
<path fill-rule="evenodd" clip-rule="evenodd" d="M4.91521 0.14958C5.22968 0.0677622 5.55293 0.248969 5.63719 0.554316L5.94233 1.66007C6.0266 1.96542 5.83997 2.27928 5.5255 2.3611C5.21102 2.44292 4.88778 2.26171 4.80352 1.95636L4.49837 0.850603C4.41411 0.545256 4.60073 0.231397 4.91521 0.14958Z" fill="url(#paint2_linear_6_51)"/>
<path fill-rule="evenodd" clip-rule="evenodd" d="M9.33395 0.524996C9.62901 0.658594 9.75667 0.99915 9.61908 1.28565L9.12082 2.32316C8.98323 2.60966 8.63249 2.73361 8.33742 2.60002C8.04236 2.46642 7.9147 2.12586 8.05229 1.83936L8.55055 0.801852C8.68814 0.515351 9.03888 0.391399 9.33395 0.524996Z" fill="url(#paint3_linear_6_51)"/>
<path fill-rule="evenodd" clip-rule="evenodd" d="M0.133756 6.78C0.105381 6.46509 0.345299 6.18746 0.669629 6.15991L1.84413 6.06014C2.16846 6.03259 2.45439 6.26554 2.48276 6.58046C2.51114 6.89537 2.27122 7.173 1.94689 7.20055L0.772385 7.30032C0.448055 7.32787 0.162131 7.09492 0.133756 6.78Z" fill="url(#paint4_linear_6_51)"/>
<path fill-rule="evenodd" clip-rule="evenodd" d="M1.28178 2.62001C1.46852 2.36106 1.8361 2.29813 2.10279 2.47945L3.06856 3.13606C3.33525 3.31738 3.40006 3.67429 3.21332 3.93323C3.02658 4.19218 2.65901 4.25512 2.39232 4.0738L1.42655 3.41719C1.15986 3.23587 1.09504 2.87896 1.28178 2.62001Z" fill="url(#paint5_linear_6_51)"/>
<defs>
<linearGradient id="paint0_linear_6_51" x1="0.610948" y1="3.12646" x2="0.610948" y2="17.7676" gradientUnits="userSpaceOnUse">
<stop stop-color="#689CFF"/>
<stop offset="1" stop-color="#37A7F4"/>
</linearGradient>
<linearGradient id="paint1_linear_6_51" x1="3.36771" y1="3.12647" x2="3.36771" y2="9.99506" gradientUnits="userSpaceOnUse">
<stop stop-color="#FFC31F"/>
<stop offset="1" stop-color="#FFB500"/>
</linearGradient>
<linearGradient id="paint2_linear_6_51" x1="4.34689" y1="0.29834" x2="4.92779" y2="2.51755" gradientUnits="userSpaceOnUse">
<stop stop-color="#FFC31F"/>
<stop offset="1" stop-color="#FFB500"/>
</linearGradient>
<linearGradient id="paint3_linear_6_51" x1="7.63351" y1="0.830811" x2="8.14618" y2="2.78936" gradientUnits="userSpaceOnUse">
<stop stop-color="#FFC31F"/>
<stop offset="1" stop-color="#FFB500"/>
</linearGradient>
<linearGradient id="paint4_linear_6_51" x1="0" y1="6.32593" x2="0.341369" y2="7.63007" gradientUnits="userSpaceOnUse">
<stop stop-color="#FFC31F"/>
<stop offset="1" stop-color="#FFB500"/>
</linearGradient>
<linearGradient id="paint5_linear_6_51" x1="1.04376" y1="2.54419" x2="1.557" y2="4.50492" gradientUnits="userSpaceOnUse">
<stop stop-color="#FFC31F"/>
<stop offset="1" stop-color="#FFB500"/>
</linearGradient>
</defs>
</svg>
